<?xml version="1.0" encoding="UTF-8" standalone="no"?>
<svg
   version="1.1"
   x="0px"
   y="0px"
   viewBox="0 0 90 90"
   width="90"
   height="90"
   xmlns="http://www.w3.org/2000/svg">
  <path
     fill-rule="evenodd"
     clip-rule="evenodd"
     d="m 9.016723,33.6893 v 4.484375 H 4.532348 v 5.039063 h 4.484375 v 4.484375 h 5.037106 v -4.484375 h 4.48438 v -5.039063 h -4.48438 V 33.6893 Z m 14.685596,-5.803568 h 44.30356 V 54.744449 H 23.702319 Z M 89.799999,45.7 c -0.5,-10.1 -2.5,-19.4 -2.5,-19.4 -0.3,-2 -1.3,-3 -3.2,-3.4 0,0 -17,-2.4 -39.1,-2.4 v 0 c -22.1,0 -39.099998,2.4 -39.099998,2.4 -2,0.3 -2.9,1.4 -3.2,3.4 0,0 -2,9.3 -2.5,19.4 -0.6,10.1 0.4,15.6 0.4,15.6 0.5,2.9 3.2,6 6.9,6.5 0,0 22.099998,1.7 37.499998,1.7 15.4,0 37.5,-1.7 37.5,-1.7 3.8,-0.5 6.4,-3.6 6.9,-6.5 0,0 1,-5.5 0.4,-15.6 z m -12.5,-0.7 c -1.5,0 -2.7,-1.2 -2.7,-2.7 0,-1.5 1.2,-2.7 2.7,-2.7 1.5,0 2.7,1.2 2.7,2.7 0,1.5 -1.3,2.7 -2.7,2.7 z m 6.2,-5.2 c -1.5,0 -2.7,-1.2 -2.7,-2.7 0,-1.5 1.2,-2.7 2.7,-2.7 1.5,0 2.7,1.2 2.7,2.7 0,1.5 -1.2,2.7 -2.7,2.7 z"
     fill="#000000" />
</svg>
