<?xml version="1.0" encoding="iso-8859-1"?>
<!-- Uploaded to: SVG Repo, www.svgrepo.com, Generator: SVG Repo Mixer Tools -->
<!DOCTYPE svg PUBLIC "-//W3C//DTD SVG 1.1//EN" "http://www.w3.org/Graphics/SVG/1.1/DTD/svg11.dtd">
<svg fill="#000000" version="1.1" id="Capa_1" xmlns="http://www.w3.org/2000/svg" xmlns:xlink="http://www.w3.org/1999/xlink" 
	 width="800px" height="800px" viewBox="0 0 519.465 519.465"
	 xml:space="preserve">
<g>
	<g>
		<path d="M118.917,519.465h281.63c16.897,0,30.6-13.701,30.6-30.6V30.6c0-16.897-13.702-30.6-30.6-30.6h-281.63
			c-16.903,0-30.6,13.703-30.6,30.6v458.265C88.317,505.77,102.014,519.465,118.917,519.465z M239.365,393.645
			c0,3.189-2.583,5.771-5.765,5.771h-33.458v33.457c0,3.189-2.583,5.771-5.765,5.771h-19.614c-3.188,0-5.771-2.582-5.771-5.771
			v-33.457h-33.458c-3.188,0-5.765-2.582-5.765-5.771v-19.615c0-3.188,2.583-5.77,5.765-5.77h33.458v-33.459
			c0-3.189,2.583-5.771,5.771-5.771h19.614c3.188,0,5.765,2.582,5.765,5.771v33.459H233.6c3.188,0,5.765,2.582,5.765,5.77V393.645
			L239.365,393.645z M317.077,434.146c-13.696,0-24.799-11.102-24.799-24.799c0-13.695,11.102-24.797,24.799-24.797
			c13.696,0,24.798,11.102,24.798,24.797C341.875,423.039,330.768,434.146,317.077,434.146z M395.608,355.615
			c0,13.695-11.102,24.799-24.798,24.799s-24.798-11.104-24.798-24.799c0-13.697,11.102-24.799,24.798-24.799
			S395.608,341.918,395.608,355.615z M127.357,45.533h259.377v228.479H127.357V45.533z"/>
	</g>
</g>
</svg>