<?xml version="1.0" encoding="UTF-8" standalone="no"?>
<svg
   width="800px"
   height="800px"
   viewBox="0 0 15 15"
   fill="none"
   xmlns="http://www.w3.org/2000/svg">
  <path
     fill-rule="evenodd"
     clip-rule="evenodd"
     d="m 2.1725606,5.5859258 v 0.9885864 l -0.9885498,0.00703 0.00729,1.021289 0.9812622,-0.00699 v 0.9813354 h 1.0213257 v -0.988623 l 0.9885498,-0.00703 -0.00725,-1.021289 -0.9812989,0.00699 V 5.5859258 Z M 12.509665,5.7173699 h 0.943686 v 0.9436859 h -0.943686 z m -1.242654,1.1512432 h 0.943686 V 7.812299 H 11.267011 Z M 5.0420473,4.9701489 H 10.295477 V 10.149055 H 5.0420473 Z M 3.7188044,2.6834325 c 0.41067,-0.27378 0.89319,-0.41987 1.38675,-0.41987 h 4.7889 c 0.4935496,0 0.9760496,0.1461 1.3867496,0.41987 l 0.8702,0.58017 c 1.3055,0.00702 2.3869,1.01813 2.48,2.32184 l 0.3197,3.98826 c 0.0432,0.6053595 -0.2825,1.1770605 -0.8254,1.4484605 l -2.09,1.0451 c -0.2401,0.119999 -0.4925,0.1384 -0.7529,0.203499 -2.4836496,0.6209 -5.0819496,0.6209 -7.5655996,0 -0.26036,-0.0651 -0.51282,-0.0835 -0.75286,-0.2035 l -2.09007601,-1.0451 c -0.542818,-0.2714 -0.86860618,-0.8431 -0.8253671,-1.4484595 l 0.3196971,-3.98826 C 0.47303445,4.28259 1.5430844,3.2706225 2.8485644,3.2636025 Z"
     fill="#000000"
  />
</svg>
