<?xml version="1.0" encoding="UTF-8" standalone="no"?>
<svg
   version="1.1"
   x="0px"
   y="0px"
   viewBox="0 0 90 90"
   width="90"
   height="90"
   xmlns="http://www.w3.org/2000/svg">
  <path
    fill-rule="evenodd"
    clip-rule="evenodd"
    d="M 43.283203 24.686982 C 33.555881 24.682201 21.813683 24.790481 6.2148438 25.115815 C 3.4540289 25.173395 1.2148437 27.462603 1.2148438 30.224018 L 1.2148438 62.330611 C 1.2148437 65.092026 3.4386425 67.583377 6.1855469 67.866004 C 32.69168 70.593192 54.837905 70.650494 83.673828 67.836429 C 86.422179 67.568222 88.648437 65.092026 88.648438 62.330611 L 88.648438 30.224018 C 88.648438 27.462603 86.409314 25.207234 83.648438 25.174964 C 70.109171 25.016715 59.495407 24.694952 43.283203 24.686982 z M 23.460938 28.929305 L 66.009766 28.929305 L 66.009766 62.455482 L 23.460938 62.455482 L 23.460938 28.929305 z M 81.332031 38.726736 A 3.5499618 2.9863526 0 0 1 84.882812 41.713778 A 3.5499618 2.9863526 0 0 1 81.332031 44.699177 A 3.5499618 2.9863526 0 0 1 77.783203 41.713778 A 3.5499618 2.9863526 0 0 1 81.332031 38.726736 z M 11.974609 39.65341 A 7.2034216 6.0597713 0 0 1 19.177734 45.714574 A 7.2034216 6.0597713 0 0 1 11.974609 51.774096 A 7.2034216 6.0597713 0 0 1 4.7714844 45.714574 A 7.2034216 6.0597713 0 0 1 11.974609 39.65341 z M 74.609375 45.704716 A 3.5499618 2.9863526 0 0 1 78.160156 48.690115 A 3.5499618 2.9863526 0 0 1 74.609375 51.677157 A 3.5499618 2.9863526 0 0 1 71.060547 48.690115 A 3.5499618 2.9863526 0 0 1 74.609375 45.704716 z "
    fill="#000000" />
</svg>
