<?xml version="1.0" encoding="UTF-8" standalone="no"?>
<svg
   height="800px"
   width="800px"
   viewBox="0 0 59.992 59.992"
   fill="none"
   xmlns="http://www.w3.org/2000/svg">
  <path
     fill-rule="evenodd"
     clip-rule="evenodd"
     d="m 10.539822,14.311641 v 3.810616 H 6.7293272 v 3.127994 h 3.8104948 v 3.810616 h 3.128116 v -3.810616 h 3.810615 v -3.127994 h -3.810615 v -3.810616 z m 24.75398,24.648774 c 0,2.883802 -2.337784,5.221586 -5.221586,5.221586 -2.883802,0 -5.221586,-2.337784 -5.221586,-5.221586 0,-2.883802 2.337784,-5.221586 5.221586,-5.221586 2.883802,0 5.221586,2.337784 5.221586,5.221586 z M 58.975,20.773 58.932,20.605 C 58.897,20.302 58.849,19.992 58.784,19.673 58.331,17.455 57.156,15.354 55.384,13.595 53.266,11.493 49.386,9.28 44.691,9.047 L 43.854,6.956 C 43.153,5.203 41.641,3.883 39.809,3.425 L 38.778,3.167 C 32.684,1.644 26.812,1.652 21.213,3.167 L 20.182,3.425 C 18.35,3.883 16.838,5.203 16.138,6.956 l -0.837,2.091 c -4.695,0.233 -8.575,2.446 -10.693,4.548 -1.771,1.759 -2.947,3.86 -3.4,6.078 -0.056,0.273 -0.096,0.539 -0.13,0.8 l -0.061,0.299 c -0.039,0.19 -3.134,20.896 1.674,32.67 0.411,1.004 1.041,1.87 1.821,2.505 0.848,0.689 1.791,1.054 2.726,1.054 1.138,0 2.238,-0.516 3.27,-1.533 4.248,-4.188 5.974,-19.801 6.046,-20.475 l 0.095,-0.987 c 0.442,0.475 0.805,0.957 1.096,1.412 0.688,1.074 1.148,2.4 1.37,3.939 1.273,8.831 4.563,14.065 7.1,16.901 0.97,1.083 2.348,1.705 3.781,1.705 1.433,0 2.812,-0.622 3.781,-1.705 2.537,-2.836 5.827,-8.07 7.1,-16.901 0.222,-1.539 0.683,-2.865 1.37,-3.939 0.291,-0.454 0.654,-0.937 1.096,-1.411 l 0.097,0.998 c 0.071,0.662 1.797,16.274 6.045,20.463 1.031,1.018 2.131,1.533 3.27,1.533 v 0 c 0.948,0 1.865,-0.354 2.726,-1.054 0.781,-0.635 1.411,-1.501 1.821,-2.506 4.808,-11.772 1.712,-32.478 1.673,-32.668 z M 36.69564,17.2521 c 0,-2.206 1.794,-4 4,-4 2.206,0 4,1.794 4,4 0,2.206 -1.794,4 -4,4 -2.206,0 -4,-1.794 -4,-4 z m 12.69964,11.04986 c -2.206,0 -4,-1.794 -4,-4 0,-2.206 1.794,-4 4,-4 2.206,0 4,1.794 4,4 0,2.206 -1.795,4 -4,4 z"
     fill="#000000"
  />
</svg>
