<?xml version="1.0" encoding="iso-8859-1"?>
<!-- Uploaded to: SVG Repo, www.svgrepo.com, Generator: SVG Repo Mixer Tools -->
<svg fill="#000000" height="800px" width="800px" version="1.1" id="Capa_1" xmlns="http://www.w3.org/2000/svg" xmlns:xlink="http://www.w3.org/1999/xlink" 
	 viewBox="0 0 59.992 59.992" xml:space="preserve">
<g>
	<circle cx="43.996" cy="24.002" r="2"/>
	<path d="M33.418,39.627c-0.171,0.162-0.352,0.313-0.545,0.449c-0.039,0.027-0.074,0.059-0.113,0.085
		c-0.225,0.15-0.467,0.276-0.715,0.389c-0.062,0.028-0.123,0.057-0.186,0.082c-0.255,0.103-0.519,0.186-0.792,0.247
		c-0.055,0.012-0.111,0.02-0.167,0.03c-0.294,0.055-0.595,0.091-0.904,0.091s-0.61-0.037-0.904-0.091
		c-0.056-0.01-0.112-0.018-0.167-0.03c-0.273-0.06-0.537-0.143-0.792-0.247c-0.063-0.026-0.124-0.054-0.186-0.082
		c-0.249-0.113-0.49-0.238-0.715-0.389c-0.039-0.026-0.074-0.058-0.113-0.085c-0.193-0.137-0.373-0.288-0.545-0.449
		c-0.055-0.052-0.111-0.1-0.163-0.155c-0.147-0.152-0.287-0.311-0.415-0.481c0,0.003,0,0.007,0,0.01c0,2.206,1.794,4,4,4
		s4-1.794,4-4c0-0.003,0-0.007,0-0.01c-0.127,0.17-0.267,0.329-0.415,0.481C33.529,39.527,33.473,39.576,33.418,39.627z"/>
	<path d="M29.996,39.002c1.643,0,2.987-1.338,2.998-2.981l0-0.04c-0.012-1.644-1.351-2.978-2.998-2.978s-2.986,1.334-2.998,2.978
		l0,0.04C27.009,37.664,28.353,39.002,29.996,39.002z"/>
	<circle cx="37.996" cy="18.002" r="2"/>
	<path d="M58.975,20.773l-0.043-0.168c-0.035-0.303-0.083-0.613-0.148-0.932c-0.453-2.218-1.628-4.319-3.4-6.078
		c-2.118-2.102-5.998-4.315-10.693-4.548l-0.837-2.091c-0.701-1.753-2.213-3.073-4.045-3.531l-1.031-0.258
		c-6.094-1.523-11.966-1.515-17.565,0l-1.031,0.258c-1.832,0.458-3.344,1.778-4.044,3.531l-0.837,2.091
		c-4.695,0.233-8.575,2.446-10.693,4.548c-1.771,1.759-2.947,3.86-3.4,6.078c-0.056,0.273-0.096,0.539-0.13,0.8l-0.061,0.299
		c-0.039,0.19-3.134,20.896,1.674,32.67c0.411,1.004,1.041,1.87,1.821,2.505c0.848,0.689,1.791,1.054,2.726,1.054
		c1.138,0,2.238-0.516,3.27-1.533c4.248-4.188,5.974-19.801,6.046-20.475l0.095-0.987c0.442,0.475,0.805,0.957,1.096,1.412
		c0.688,1.074,1.148,2.4,1.37,3.939c1.273,8.831,4.563,14.065,7.1,16.901c0.97,1.083,2.348,1.705,3.781,1.705
		s2.812-0.622,3.781-1.705c2.537-2.836,5.827-8.07,7.1-16.901c0.222-1.539,0.683-2.865,1.37-3.939
		c0.291-0.454,0.654-0.937,1.096-1.411l0.097,0.998c0.071,0.662,1.797,16.274,6.045,20.463c1.031,1.018,2.131,1.533,3.27,1.533
		c0,0,0,0,0,0c0.948,0,1.865-0.354,2.726-1.054c0.781-0.635,1.411-1.501,1.821-2.506C62.11,41.669,59.014,20.963,58.975,20.773z
		 M48.996,14.002c0.552,0,1,0.448,1,1s-0.448,1-1,1s-1-0.448-1-1S48.444,14.002,48.996,14.002z M46.996,16.002c0.552,0,1,0.448,1,1
		s-0.448,1-1,1s-1-0.448-1-1S46.444,16.002,46.996,16.002z M21.996,22.332c0,0.921-0.749,1.67-1.67,1.67h-1.33v1.33
		c0,0.921-0.749,1.67-1.67,1.67h-2.66c-0.921,0-1.67-0.749-1.67-1.67v-1.33h-1.33c-0.921,0-1.67-0.749-1.67-1.67v-2.66
		c0-0.921,0.749-1.67,1.67-1.67h1.33v-1.33c0-0.921,0.749-1.67,1.67-1.67h2.66c0.921,0,1.67,0.749,1.67,1.67v1.33h1.33
		c0.921,0,1.67,0.749,1.67,1.67V22.332z M29.996,45.002c-3.309,0-6-2.691-6-6c0-1.18,0.366-2.31,1.031-3.303
		c0.16-2.613,2.316-4.697,4.969-4.697s4.809,2.083,4.969,4.697c0.665,0.993,1.031,2.124,1.031,3.303
		C35.996,42.31,33.304,45.002,29.996,45.002z M33.996,18.002c0-2.206,1.794-4,4-4s4,1.794,4,4s-1.794,4-4,4
		S33.996,20.208,33.996,18.002z M43.996,28.002c-2.206,0-4-1.794-4-4s1.794-4,4-4s4,1.794,4,4S46.201,28.002,43.996,28.002z
		 M48.996,20.002c-0.552,0-1-0.448-1-1s0.448-1,1-1s1,0.448,1,1S49.548,20.002,48.996,20.002z M50.996,18.002c-0.552,0-1-0.448-1-1
		s0.448-1,1-1s1,0.448,1,1S51.548,18.002,50.996,18.002z"/>
	<path d="M16.996,18.332v-1.33h-2v1.33c0,0.921-0.749,1.67-1.67,1.67h-1.33v2h1.33c0.921,0,1.67,0.749,1.67,1.67v1.33h2v-1.33
		c0-0.921,0.749-1.67,1.67-1.67h1.33v-2h-1.33C17.745,20.002,16.996,19.252,16.996,18.332z"/>
</g>
</svg>