<?xml version="1.0" encoding="iso-8859-1"?>
<!-- Uploaded to: SVG Repo, www.svgrepo.com, Generator: SVG Repo Mixer Tools -->
<!DOCTYPE svg PUBLIC "-//W3C//DTD SVG 1.1//EN" "http://www.w3.org/Graphics/SVG/1.1/DTD/svg11.dtd">
<svg fill="#000000" version="1.1" id="Capa_1" xmlns="http://www.w3.org/2000/svg" xmlns:xlink="http://www.w3.org/1999/xlink" 
	 width="800px" height="800px" viewBox="0 0 47.45 47.449"
	 xml:space="preserve">
<g>
	<g id="Layer_29_47_">
		<g>
			<rect x="40.323" y="22.859" width="2.1" height="2.098"/>
			<path d="M37.469,13.741H9.827v0.008C4.387,13.833,0,18.263,0,23.724c0,5.46,4.387,9.891,9.826,9.976v0.008h27.643
				c5.514-0.001,9.98-4.47,9.98-9.983S42.983,13.742,37.469,13.741z M10.109,23.669v0.764v0.084H7.571v2.539h-0.14H7.245H6.723
				H6.536H6.397v-2.539H3.859v-0.084v-0.764v-0.111h0.326h2.212v-2.623h0.326h0.522h0.326v2.623h2.211h0.327V23.669z M36.321,31.835
				H12.698V15.306h23.623V31.835z M44.518,24.956H42.42v2.1h-2.1v-2.1h-2.096v-2.098h2.096V20.76h2.1v2.098h2.098V24.956z"/>
		</g>
	</g>
</g>
</svg>