<?xml version="1.0" encoding="UTF-8" standalone="no"?>
<!-- Created with Inkscape (http://www.inkscape.org/) -->

<svg
        width="62.340584mm"
        height="62.340801mm"
        viewBox="0 0 62.340584 62.340801"
        version="1.1"
        id="svg5"
        xmlns="http://www.w3.org/2000/svg"
>
  <defs
     id="defs2" />
  <g
     id="g11"
     transform="matrix(0.97929948,0,0,0.97929948,0.60080802,0.68869373)">
    <g
       id="layer5"
       style="display:inline;fill:#ffffff"
       transform="translate(-75.691815,-12.915919)">
      <ellipse
         style="display:inline;fill:#ffffff;fill-opacity:1;stroke:#000000;stroke-width:1.465;stroke-linecap:round;stroke-miterlimit:4;stroke-dasharray:none;stroke-opacity:1"
         id="path7080"
         cx="106.86211"
         cy="44.086319"
         rx="31.038"
         ry="31.038109" />
    </g>
    <g
       id="g4"
       transform="matrix(1.1318644,0,0,1.1318644,-7.1981493,-1.8751959)">
      <g
         id="layer9"
         style="display:inline"
         transform="translate(-75.691815,-12.915919)">
        <g
           id="g8172"
           style="display:inline;fill:#000000">
          <path
             d="m 106.86201,13.048211 a 31.038,31.038109 0 0 0 -31.037903,31.037898 31.038,31.038109 0 0 0 31.037903,31.038416 31.038,31.038109 0 0 0 0.5302,-0.04186 c 4.12051,-11.470571 6.7458,-24.254952 5.86579,-39.317497 -1.05379,-1.231578 -2.63011,-4.997275 1.51102,-5.519559 6.37292,-8.641388 13.47417,-6.618814 13.59503,4.107759 2.33972,2.247276 1.42943,3.905691 -0.77514,4.874638 -5.63608,11.05593 -8.55706,22.43526 -10.07122,33.93643 A 31.038,31.038109 0 0 0 137.8999,44.086109 31.038,31.038109 0 0 0 106.86201,13.048211 Z"
             style="display:inline;fill:#ffffff;stroke:#000000;stroke-width:1.465;stroke-linecap:round"
             id="path4"
             transform="matrix(0.88349807,0,0,0.88349807,15.177795,3.1614615)" />
          <path
             d="m 119.00444,67.8021 c 1.33776,-10.161261 3.91844,-20.214877 8.8979,-29.982769 1.94774,-0.856064 2.75198,-2.32127 0.68485,-4.306734 -0.10678,-9.476906 -6.38073,-11.263847 -12.01119,-3.629197 -3.65868,0.461437 -2.266,3.788423 -1.33498,4.87652 0.77748,13.307729 -1.54195,24.602705 -5.18242,34.736932 a 27.422013,27.422109 0 0 0 8.94584,-1.694752 z"
             style="display:inline;stroke-width:0.405"
             id="path6" />
          <path
             id="path25"
             style="display:inline;fill:#000000;stroke:#020202;stroke-width:0.416574;stroke-linecap:butt;stroke-linejoin:miter;stroke-dasharray:none;stroke-opacity:1"
             d="m 128.91218,22.927641 c -1.59368,0.803962 -2.57551,2.213749 -3.33363,3.505431 1.3052,-1.040092 1.65911,-2.639865 3.68627,-3.264011 z" />
          <path
             style="display:inline;fill:#000000;stroke:#000000;stroke-width:0.416457px;stroke-linecap:butt;stroke-linejoin:miter;stroke-opacity:1"
             d="m 123.59908,25.836504 c -0.088,-0.654056 -0.0611,-1.360567 -0.67314,-2.337911 -0.38463,-0.614221 -1.02164,-1.335412 -2.09818,-2.217778"
             id="path8168-6" />
          <path
             id="path24"
             style="display:inline;fill:none;stroke:#000000;stroke-width:0.416457px;stroke-linecap:butt;stroke-linejoin:miter;stroke-opacity:1"
             d="m 124.16991,21.169988 0.53769,5.016087 c -0.0758,-2.251187 -0.0437,-3.778309 -0.21081,-4.959778 z" />
        </g>
        <g
           id="g1551"
           style="display:inline">
          <path
             style="fill:#71c837;fill-opacity:1;stroke:none;stroke-width:0.299381px;stroke-linecap:butt;stroke-linejoin:miter;stroke-opacity:1"
             d="m 111.75182,45.203311 c 1.65068,3.969398 10.9335,6.018373 15.02716,3.472181 -1.37287,2.276735 -2.24012,4.670164 -1.65072,7.399737 -2.67062,-3.506485 -11.8907,-5.917039 -15.02713,-3.586027 1.26967,-1.905387 2.04425,-4.170865 1.65069,-7.285891 z"
             id="path1539" />
          <path
             style="fill:#338000;fill-opacity:1;stroke:none;stroke-width:0.345551px;stroke-linecap:round;stroke-linejoin:miter;stroke-opacity:1"
             d="m 117.58052,49.068232 c 0.0713,1.717245 -0.45772,2.098209 -0.76893,2.963908 l 2.3068,0.583799 c 0.0152,-1.698772 0.29806,-2.214501 0.76896,-3.098632 z"
             id="path1541" />
        </g>
        <g
           id="g3017"
           style="display:inline;fill:#ffffff">
          <ellipse
             id="ellipse3015"
             style="fill:#ffffff;stroke-width:0.200437"
             transform="matrix(0.98756596,0.15720517,-0.23596053,0.97176264,0,0)"
             ry="1.1407745"
             rx="0.96626657"
             cy="11.301481"
             cx="123.89161" />
        </g>
        <g
           id="g2"
           style="display:inline;fill:#000000"
           transform="matrix(0.59418228,0,0,0.59418228,48.517278,12.420273)">
          <ellipse
             id="ellipse2"
             style="fill:#000000;stroke-width:0.173729"
             transform="matrix(0.98756596,0.15720517,-0.23596053,0.97176264,0,0)"
             ry="0.98876804"
             rx="0.83751303"
             cy="11.132928"
             cx="123.98512" />
        </g>
        <g
           id="g1"
           style="display:inline;fill:#ffffff">
          <ellipse
             id="ellipse1"
             style="fill:#ffffff;stroke-width:0.200808"
             transform="matrix(0.95652639,0.29164578,-0.36747617,0.93003294,0,0)"
             ry="1.1428727"
             rx="0.96804386"
             cy="-5.7001371"
             cx="129.74226" />
        </g>
        <g
           id="g2849"
           style="display:inline;fill:#000000"
           transform="matrix(0.52320234,0,0,0.52320234,60.062562,15.630243)">
          <ellipse
             id="ellipse2847"
             style="fill:#000000;stroke-width:0.200808"
             transform="matrix(0.95652639,0.29164578,-0.36747617,0.93003294,0,0)"
             ry="1.1428727"
             rx="0.96804386"
             cy="-5.9043016"
             cx="129.82901" />
        </g>
        <g
           id="layer13"
           transform="translate(75.691815,12.915919)"
           style="display:inline">
          <path
             style="fill:#ff9955;stroke:none;stroke-width:0.292687px;stroke-linecap:butt;stroke-linejoin:miter;stroke-opacity:1"
             d="m 43.708549,30.864404 c -0.451259,-3.369732 -1.672713,-7.289602 -3.561496,-11.686136 6.593835,-0.115701 9.279112,1.722893 11.853078,3.617138 -3.10962,2.48221 -6.187306,4.983579 -8.291582,8.068998 z"
             id="path1080" />
        </g>
      </g>
    </g>
    <g
       id="g6"
       transform="matrix(1.1062534,0,0,1.1062534,-2.8324032,-1.4427614)">
      <g
         id="layer6"
         style="display:inline"
         transform="translate(-75.691815,-12.915919)">
        <g
           id="g4818"
           style="display:inline;fill:#000000">
          <g
             id="g3543"
             transform="matrix(1.5324027,0,0,1.5324027,-53.040505,-15.777158)"
             style="fill:#000000">
            <path
               d="m 100.57648,55.910441 c -0.652508,-3.652176 -2.088139,-7.753668 -4.769759,-13.77428 -1.493645,-3.353442 -0.728652,-6.694039 0.388969,-6.638699 1.276113,-1.203015 1.998756,-1.327264 2.219505,-5.371805 -4.207109,-6.917083 -12.516235,-2.300977 -9.950733,3.747339 2.996816,7.284539 4.844714,12.321096 4.647516,18.686392 a 18.309067,18.309131 0 0 0 7.464502,3.351053 z"
               style="stroke-width:0.369412px"
               id="path11" />
            <path
               style="fill:#000000;fill-opacity:1;stroke:none;stroke-width:0.264583px;stroke-linecap:butt;stroke-linejoin:miter;stroke-opacity:1"
               d="m 91.115937,27.198244 c 0.639365,-0.667942 1.066345,-1.796051 1.422837,-3.076884 0.300128,0.520055 0.310181,2.528324 -0.08892,2.916815 z"
               id="path10022" />
            <path
               style="fill:#000000;fill-opacity:1;stroke:none;stroke-width:0.264583px;stroke-linecap:butt;stroke-linejoin:miter;stroke-opacity:1"
               d="m 92.520989,26.504611 c 0.456202,-0.415169 0.794707,-0.900955 1.013769,-1.458407 0.257262,0.879293 0.466838,2.498263 -0.03557,2.223182 l -1.33391,0.08893 z"
               id="path10560" />
          </g>
        </g>
        <g
           id="g2271"
           style="display:inline;fill:#ffffff">
          <ellipse
             style="display:inline;fill:#ffffff;fill-opacity:1;stroke:none;stroke-width:0.179325;stroke-linecap:round;stroke-opacity:1"
             id="ellipse2267"
             cx="93.098595"
             cy="31.4842"
             rx="0.94023973"
             ry="1.0969462" />
        </g>
        <g
           id="g3"
           style="display:inline;fill:#000000"
           transform="matrix(0.48904698,0,0,0.48904698,47.568697,16.08731)">
          <ellipse
             style="display:inline;fill:#000000;fill-opacity:1;stroke:none;stroke-width:0.179325;stroke-linecap:round;stroke-opacity:1"
             id="ellipse3"
             cx="93.422211"
             cy="31.4842"
             rx="0.94023973"
             ry="1.0969462" />
        </g>
        <g
           id="layer11"
           style="display:inline">
          <path
             style="fill:#ff9955;stroke:none;stroke-width:0.505;stroke-linecap:butt;stroke-linejoin:miter;stroke-dasharray:none;stroke-opacity:1"
             d="M 97.771337,30.38764 108.14093,35.547326 97.220427,35.23898 105.9883,39.259037 93.970466,38.610036 C 87.97406,33.527324 97.220427,35.23898 97.771337,30.38764 Z"
             id="path1569" />
        </g>
        <g
           id="g14192"
           style="display:inline">
          <path
             style="fill:#e8251f;fill-opacity:1;stroke:none;stroke-width:0.405448px;stroke-linecap:butt;stroke-linejoin:miter;stroke-opacity:1"
             d="m 94.042959,26.433685 c -4.143079,-0.204654 -8.644103,0.534737 -10.295979,1.193394 0,0 -1.091332,0.911468 -1.635685,2.781905 4.518672,-0.794781 9.576183,-1.920247 14.295189,-1.913707 -1.098104,-1.333601 -2.363525,-2.061592 -2.363525,-2.061592 z"
             id="path14186" />
          <path
             style="display:inline;fill:#e8251f;fill-opacity:1;stroke:none;stroke-width:0.405448px;stroke-linecap:butt;stroke-linejoin:miter;stroke-opacity:1"
             d="m 83.74698,27.627079 c -0.470424,0.23359 -1.603164,1.082989 -2.973466,4.055797 -1.515981,3.288852 -2.433765,8.298559 -2.269078,9.177129 -0.178096,1.056982 0.536591,1.766772 1.662525,2.316634 -0.440366,-4.461696 2.262263,-11.15009 3.580019,-15.54956 z"
             id="path14188" />
          <path
             style="display:inline;fill:#e8251f;fill-opacity:1;stroke:none;stroke-width:0.405448px;stroke-linecap:butt;stroke-linejoin:miter;stroke-opacity:1"
             d="m 82.534903,29.291291 c -0.663301,4.442766 -2.796102,10.056422 -2.327059,11.555094 l 1.689778,1.144688 c -0.690879,-2.506549 1.801468,-9.881754 1.96528,-14.097678"
             id="path14190" />
        </g>
      </g>
    </g>
    <g
       id="g5"
       transform="translate(-2.2314975,0.83550062)">
      <g
         id="layer7"
         style="display:inline"
         transform="translate(-75.691815,-12.915919)">
        <g
           id="path8"
           transform="translate(2.2314977,-0.83550067)">
          <path
             style="color:#000000;fill:#000000;stroke-linecap:round;-inkscape-stroke:none"
             d="m 137.23633,50.513672 c -0.39371,-0.09271 -0.78805,0.151234 -0.88086,0.544922 -14.61453,7.324137 -37.631865,6.713279 -58.634767,1.34375 -0.111622,-0.388881 -0.517382,-0.613624 -0.90625,-0.501953 -0.388682,0.110795 -0.614179,0.515466 -0.503906,0.904296 3.892793,13.640612 16.365617,23.052736 30.550783,23.052735 14.72654,-2e-6 27.5317,-10.129427 30.91992,-24.460938 0.094,-0.394361 -0.15028,-0.790033 -0.54492,-0.882812 z"
             id="path10" />
        </g>
        <g
           id="layer10"
           style="display:inline">
          <path
             style="display:none;fill:none;fill-opacity:1;stroke:#ff2b2b;stroke-width:0.319856;stroke-dasharray:none;stroke-opacity:1"
             d="m 88.391104,64.635528 c 13.629636,4.038176 22.852406,4.308436 39.843346,-0.30335"
             id="path12" />
          <path
             style="fill:#ffffff;stroke-width:0.245659"
             d="m 90.006926,60.460766 q 0.146217,-0.555952 0.562589,-1.159732 0.421247,-0.622313 0.980035,-1.08957 0.582193,-0.480915 1.203433,-0.733612 0.644645,-0.266355 1.219128,-0.115264 0.315039,0.08286 0.577429,0.29056 0.280922,0.212578 0.500411,0.508067 0.242894,0.281831 0.392166,0.618293 0.172678,0.322805 0.224418,0.653429 0.05174,0.330625 -0.02137,0.6086 -0.05458,0.28285 -0.274975,0.442834 l -4.100272,-0.305655 q -0.079,-9.64e-4 -0.17846,0.1512 -0.09459,0.133632 -0.195011,0.364796 -0.100424,0.231165 -0.215469,0.517924 -0.09164,0.273102 -0.18328,0.546204 -0.08677,0.25457 -0.145253,0.47695 -0.05361,0.203849 -0.08286,0.315039 -0.136469,0.518888 0.01671,0.915819 0.176588,0.383274 0.521888,0.652411 0.345301,0.269137 0.812504,0.451453 0.485734,0.18719 0.967559,0.313911 0.481824,0.126722 0.917801,0.201758 0.435977,0.07504 0.713953,0.148144 -0.0195,0.07413 -0.09946,0.152164 -0.07996,0.07804 -0.17846,0.1512 -0.09362,0.05463 -0.187245,0.109262 -0.08875,0.0361 -0.112154,0.04976 -0.158002,-0.0019 -0.492536,-0.01066 -0.311129,-0.02239 -0.677853,-0.0594 -0.348193,-0.03213 -0.654448,-0.07305 -0.306255,-0.04092 -0.417445,-0.07016 -0.603726,-0.0399 -0.995838,-0.281722 -0.392112,-0.241822 -0.605763,-0.634843 -0.213652,-0.393021 -0.281995,-0.886521 -0.06347,-0.512032 -0.01966,-1.055289 0.04381,-0.543257 0.171496,-1.104082 0.146216,-0.555951 0.33828,-1.060217 z m 3.520533,-2.462208 q -0.166785,-0.04387 -0.4935,0.06834 -0.303309,0.09855 -0.617329,0.313166 -0.290615,0.200957 -0.540257,0.472131 -0.226235,0.257516 -0.229127,0.494518 0.467203,0.182316 1.005586,0.244659 0.538383,0.06234 1.003604,0.02619 0.470094,-0.05468 0.801682,-0.185426 0.336463,-0.149272 0.376418,-0.376526 0.05849,-0.222381 -0.249751,-0.48177 -0.284832,-0.273047 -1.057326,-0.575282 z m 2.415168,1.171364 q 0.227926,0.03039 0.478645,0.179806 0.25072,0.149416 0.3191,0.5065 0.238052,-0.625531 0.595134,-0.983884 0.376075,-0.355819 0.795205,-0.45459 0.438124,-0.09624 0.867385,0.01899 0.450787,0.09877 0.800275,0.377339 0.368479,0.281107 0.605269,0.679976 0.25579,0.401401 0.30644,0.891441 0.28744,-0.560952 0.69517,-1.009209 0.42926,-0.464718 0.89271,-0.750894 0.48244,-0.283644 0.95602,-0.355824 0.49257,-0.06965 0.87118,0.135485 0.40014,0.188669 0.64073,0.704034 0.26212,0.498902 0.27858,1.390346 0.005,0.251984 -0.004,0.753421 -0.006,0.482444 -0.0304,1.097844 -0.005,0.617932 -0.0203,1.31184 0.006,0.677446 -0.0177,1.292846 -0.005,0.617933 -0.0139,1.11937 -0.006,0.482443 0.001,0.715434 -0.0253,0.189938 -0.0747,0.415332 -0.0494,0.225393 -0.14815,0.386208 -0.0772,0.144354 -0.23679,0.181076 -0.13802,0.02026 -0.39507,-0.226657 0.0304,-0.227926 0.0418,-0.748357 0.0114,-0.520431 0.043,-1.192813 0.0342,-0.691375 0.038,-1.444797 0.0253,-0.769883 0.019,-1.447329 0.0127,-0.674914 0.024,-1.195345 0.0114,-0.520431 -0.0177,-0.73696 -0.16842,-0.911703 -0.44573,-1.296642 -0.25832,-0.382408 -0.58628,-0.387471 -0.30897,-0.0025 -0.64199,0.320366 -0.33302,0.322897 -0.63439,0.84333 -0.30136,0.520432 -0.60146,1.176354 -0.27857,0.63946 -0.48117,1.28905 -0.18361,0.652123 -0.3001,1.235867 -0.0975,0.586276 -0.0532,0.978815 l -0.761023,0.05319 q 0.300093,-1.815811 0.264633,-2.999759 -0.01394,-1.20041 -0.253265,-1.870257 -0.220332,-0.667315 -0.604009,-0.834458 -0.381143,-0.186138 -0.818,0.04559 -0.417863,0.234259 -0.829392,0.855993 -0.411529,0.621733 -0.709094,1.548634 -0.276038,0.910438 -0.395059,2.093121 -0.119021,1.182683 0.06206,2.579361 L 95.743867,66.3154 q 0,0 -0.0089,-0.36848 0.01013,-0.365948 0.0076,-0.926899 0.01899,-0.577412 0.03671,-1.290314 0.02026,-0.731895 0.04051,-1.463791 0.02279,-0.750889 0.03545,-1.425803 0.01519,-0.693908 0.02152,-1.176351 0.0076,-0.05698 0.03292,-0.24692 0.02786,-0.208932 0.03292,-0.24692 z m 9.362003,1.2572 q -0.005,-0.0957 0.10566,-0.196904 0.12939,-0.102121 0.2989,-0.167798 0.18865,-0.06659 0.35999,-0.09399 0.17134,-0.0274 0.25157,0.04549 0.2286,2.367848 0.62187,3.768607 0.41149,1.380703 0.86376,2.011278 0.47141,0.629657 0.96996,0.624945 0.49764,-0.02385 0.95596,-0.467866 0.4574,-0.463154 0.82356,-1.228877 0.3853,-0.766641 0.59283,-1.639864 0.22668,-0.874141 0.24281,-1.738191 0.0161,-0.864049 -0.22651,-1.523856 l 1.14198,-0.189024 q 0.0329,0.286182 0.14157,0.95241 0.12689,0.646171 0.26295,1.483741 0.15429,0.817513 0.33139,1.710669 0.1771,0.893155 0.31041,1.673306 0.1324,0.76101 0.23556,1.312399 0.10225,0.532249 0.10867,0.666228 l -0.82302,0.03945 -1.05829,-3.268092 q -0.23585,0.682742 -0.58929,1.313568 -0.35344,0.630826 -0.79078,1.112202 -0.4182,0.480459 -0.903,0.772271 -0.48571,0.272671 -0.98518,0.258244 -0.48125,-0.03449 -0.95988,-0.414406 -0.47862,-0.379921 -0.92184,-1.221953 -0.425,-0.862089 -0.77815,-2.226403 -0.35316,-1.364315 -0.58346,-3.367587 z m 10.11428,2.616127 -0.22991,-0.834597 1.77375,-0.420438 0.99306,-3.316683 -4.91851,1.226914 -0.22129,-0.680349 q 0.0189,-0.0034 0.37017,-0.106373 0.36673,-0.125225 0.91855,-0.303636 0.57067,-0.181844 1.25102,-0.403141 0.6992,-0.224731 1.38299,-0.427176 0.68378,-0.202445 1.29559,-0.372305 0.60837,-0.188711 1.01968,-0.283099 l -0.92245,4.452973 1.76689,-0.458141 0.19907,0.879167 -2.60491,0.669203 -0.52689,3.309687 q 1.38649,-0.194087 2.72153,-0.456715 1.35046,-0.284912 2.72664,-0.535555 l 0.11331,0.622109 q -0.0566,0.0103 -0.44901,0.101255 -0.39246,0.09095 -1.0077,0.241962 -0.61524,0.151008 -1.34359,0.322617 -0.72836,0.171608 -1.45671,0.343217 -0.73179,0.152757 -1.3916,0.272928 -0.64096,0.116738 -1.04372,0.151137 l 0.62089,-4.183802 z m 7.04007,-1.859042 q -0.14342,-0.556679 -0.0743,-1.286843 0.0643,-0.748719 0.32438,-1.429129 0.2738,-0.703746 0.69298,-1.22728 0.43295,-0.54687 1.00818,-0.695071 0.31545,-0.08127 0.64581,-0.02787 0.34892,0.04862 0.68463,0.199582 0.34948,0.127626 0.64386,0.348598 0.30816,0.197635 0.51454,0.461066 0.20638,0.263431 0.27809,0.541771 0.0903,0.273559 -0.0241,0.5207 l -3.72886,1.732401 q -0.0694,0.03768 -0.0821,0.219024 -0.0174,0.16279 0.008,0.413579 0.025,0.250789 0.0644,0.557246 0.0532,0.28312 0.10631,0.566241 0.0484,0.264564 0.10574,0.487236 0.0526,0.204115 0.0813,0.315451 0.13386,0.519568 0.46114,0.791427 0.34105,0.248522 0.77375,0.315132 0.4327,0.06661 0.9295,-0.002 0.51536,-0.07341 0.99781,-0.197707 0.48246,-0.124297 0.89968,-0.271364 0.41723,-0.147067 0.69557,-0.218777 0.0191,0.07422 -0.0126,0.181346 -0.0318,0.107122 -0.0821,0.219024 -0.0551,0.09335 -0.1102,0.186693 -0.0599,0.07479 -0.0737,0.09813 -0.13889,0.07536 -0.43521,0.230852 -0.28256,0.132158 -0.62078,0.278658 -0.31967,0.14172 -0.607,0.255322 -0.28733,0.113603 -0.39867,0.142287 -0.54655,0.259536 -1.0068,0.239599 -0.46026,-0.01994 -0.83842,-0.258898 -0.37817,-0.238961 -0.67846,-0.636498 -0.30508,-0.416093 -0.53172,-0.911757 -0.22664,-0.495664 -0.38861,-1.047563 -0.14342,-0.556679 -0.22161,-1.090589 z m 1.87312,-3.866266 q -0.167,0.04303 -0.39753,0.300295 -0.21676,0.233933 -0.38628,0.574421 -0.15574,0.317152 -0.24147,0.675629 -0.072,0.335141 0.0411,0.543471 0.4968,-0.06863 0.99725,-0.276711 0.50044,-0.208083 0.88898,-0.466485 0.38376,-0.276959 0.60952,-0.552785 0.22097,-0.294381 0.14504,-0.512272 -0.0574,-0.222672 -0.45295,-0.298843 -0.38182,-0.09951 -1.20363,0.01328 z"
             id="text38723"
             transform="rotate(1.2804375,77.492204,62.246378)"
             aria-label="emuze" />
        </g>
      </g>
    </g>
  </g>
</svg>
