<?xml version="1.0" encoding="UTF-8" standalone="no"?>
<!-- Created with Inkscape (http://www.inkscape.org/) -->

<svg
   width="62.340584mm"
   height="62.340801mm"
   viewBox="0 0 62.340584 62.340801"
   version="1.1"
   id="svg5"
   inkscape:version="1.1 (c68e22c387, 2021-05-23)"
   sodipodi:docname="logo.svg"
   inkscape:export-filename="C:\projects\emuze\artwork\logo.png"
   inkscape:export-xdpi="327.33902"
   inkscape:export-ydpi="327.33902"
   xmlns:inkscape="http://www.inkscape.org/namespaces/inkscape"
   xmlns:sodipodi="http://sodipodi.sourceforge.net/DTD/sodipodi-0.dtd"
   xmlns="http://www.w3.org/2000/svg"
   xmlns:svg="http://www.w3.org/2000/svg">
  <sodipodi:namedview
     id="namedview7"
     pagecolor="#ffffff"
     bordercolor="#666666"
     borderopacity="1.0"
     inkscape:pageshadow="2"
     inkscape:pageopacity="0.0"
     inkscape:pagecheckerboard="0"
     inkscape:document-units="mm"
     showgrid="false"
     inkscape:zoom="2"
     inkscape:cx="169.75"
     inkscape:cy="130.75"
     inkscape:window-width="1920"
     inkscape:window-height="1009"
     inkscape:window-x="-8"
     inkscape:window-y="-8"
     inkscape:window-maximized="1"
     inkscape:current-layer="g2271" />
  <defs
     id="defs2" />
  <g
     inkscape:groupmode="layer"
     id="layer5"
     inkscape:label="circle"
     style="display:inline"
     transform="translate(-75.691815,-12.915919)"
     sodipodi:insensitive="true">
    <ellipse
       style="fill:#000000;fill-opacity:1;stroke:none;stroke-width:0.265;stroke-linecap:round;stroke-miterlimit:4;stroke-dasharray:none;stroke-opacity:1"
       id="path7080"
       cx="106.86211"
       cy="44.086319"
       rx="31.038"
       ry="31.038109"
       inkscape:export-filename="C:\projects\emuze\artwork\path7080.png"
       inkscape:export-xdpi="181.78999"
       inkscape:export-ydpi="181.78999" />
  </g>
  <g
     inkscape:groupmode="layer"
     id="layer9"
     inkscape:label="Emu rechts"
     style="display:inline"
     transform="translate(-75.691815,-12.915919)">
    <g
       inkscape:label="Körper copy"
       inkscape:groupmode="layer"
       id="g8172"
       style="display:inline">
      <path
         id="path8196"
         style="fill:#ffffff;fill-opacity:1;stroke:#ffffff;stroke-width:0.405448px;stroke-linecap:butt;stroke-linejoin:miter;stroke-opacity:1"
         d="m 96.163438,98.637141 c 0.760201,0.04679 1.52143,0.07531 2.283027,0.08552 1.186176,-4e-6 2.371925,-0.04438 3.554785,-0.133036 1.18262,-0.08866 2.36151,-0.221532 3.53421,-0.398324 1.17271,-0.176763 2.3384,-0.397327 3.49462,-0.661229 1.15642,-0.264037 2.30256,-0.57124 3.43601,-0.920967 1.1332,-0.349474 2.25291,-0.741204 3.35682,-1.174375 0.59996,-0.247277 1.1948,-0.50681 1.78413,-0.77843 0.009,-19.172041 0.95063,-38.506192 10.29538,-56.837187 1.94774,-0.856064 2.75212,-2.320836 0.68498,-4.306302 -0.10678,-9.476916 -6.38093,-11.263895 -12.0114,-3.629238 -3.65868,0.461438 -2.26615,3.788368 -1.33513,4.876466 1.59734,27.340589 -9.82846,46.22706 -19.077432,63.877097 z"
         sodipodi:nodetypes="ccccccccccccc" />
      <path
         style="fill:none;stroke:#ffffff;stroke-width:0.405448px;stroke-linecap:butt;stroke-linejoin:miter;stroke-opacity:1"
         d="m 125.52544,26.324873 c 1.02166,-1.740704 2.46037,-3.702103 5.31903,-4.014018"
         id="path8166"
         sodipodi:nodetypes="cc" />
      <path
         style="fill:none;stroke:#ffffff;stroke-width:0.405448px;stroke-linecap:butt;stroke-linejoin:miter;stroke-opacity:1"
         d="m 123.59827,25.743981 c -0.13962,-1.03695 0.0177,-2.209325 -2.69807,-4.435262"
         id="path8168"
         sodipodi:nodetypes="cc" />
      <path
         style="fill:none;stroke:#ffffff;stroke-width:0.405448px;stroke-linecap:butt;stroke-linejoin:miter;stroke-opacity:1"
         d="m 124.67747,26.084257 c -0.11409,-3.388187 0.0228,-5.091529 -0.69379,-6.471458"
         id="path8170"
         sodipodi:nodetypes="cc" />
    </g>
    <g
       inkscape:groupmode="layer"
       id="g1551"
       inkscape:label="fliege copy"
       style="display:inline">
      <path
         style="fill:#71c837;fill-opacity:1;stroke:none;stroke-width:0.299381px;stroke-linecap:butt;stroke-linejoin:miter;stroke-opacity:1"
         d="m 111.75182,45.203311 c 1.65068,3.969398 10.9335,6.018373 15.02716,3.472181 -1.37287,2.276735 -2.24012,4.670164 -1.65072,7.399737 -2.67062,-3.506485 -11.8907,-5.917039 -15.02713,-3.586027 1.26967,-1.905387 2.04425,-4.170865 1.65069,-7.285891 z"
         id="path1539"
         sodipodi:nodetypes="ccccc" />
      <path
         style="fill:#338000;fill-opacity:1;stroke:none;stroke-width:0.345551px;stroke-linecap:round;stroke-linejoin:miter;stroke-opacity:1"
         d="m 117.58052,49.068232 c 0.0713,1.717245 -0.45772,2.098209 -0.76893,2.963908 l 2.3068,0.583799 c 0.0152,-1.698772 0.29806,-2.214501 0.76896,-3.098632 z"
         id="path1541"
         sodipodi:nodetypes="ccccc" />
    </g>
    <g
       inkscape:groupmode="layer"
       id="g3017"
       inkscape:label="linkes auge copy"
       style="display:inline">
      <ellipse
         id="ellipse3015"
         style="fill:#000000;stroke-width:0.200437"
         transform="matrix(0.98756596,0.15720517,-0.23596053,0.97176264,0,0)"
         inkscape:transform-center-y="0.068470603"
         ry="1.1407745"
         rx="0.96626657"
         cy="11.301481"
         cx="123.89161"
         inkscape:transform-center-x="-1.2685069e-06" />
    </g>
    <g
       inkscape:groupmode="layer"
       id="g2849"
       inkscape:label="rechtes auge copy"
       style="display:inline">
      <ellipse
         id="ellipse2847"
         style="fill:#000000;stroke-width:0.200808"
         transform="matrix(0.95652639,0.29164578,-0.36747617,0.93003294,0,0)"
         inkscape:transform-center-y="0.067943846"
         ry="1.1428727"
         rx="0.96804386"
         cy="-5.7001371"
         cx="129.74226"
         inkscape:transform-center-x="0.009436886" />
    </g>
    <g
       inkscape:groupmode="layer"
       id="layer13"
       inkscape:label="schnabel 2"
       transform="translate(75.691815,12.915919)"
       style="display:inline">
      <path
         style="fill:#ff9955;stroke:none;stroke-width:0.292687px;stroke-linecap:butt;stroke-linejoin:miter;stroke-opacity:1"
         d="m 43.708549,30.864404 c -0.451259,-3.369732 -1.672713,-7.289602 -3.561496,-11.686136 6.593835,-0.115701 9.279112,1.722893 11.853078,3.617138 -3.10962,2.48221 -6.187306,4.983579 -8.291582,8.068998 z"
         id="path1080"
         sodipodi:nodetypes="cccc" />
    </g>
  </g>
  <g
     inkscape:groupmode="layer"
     id="layer6"
     inkscape:label="Emu links"
     style="display:inline"
     transform="translate(-75.691815,-12.915919)">
    <g
       inkscape:label="Körper"
       inkscape:groupmode="layer"
       id="g4818"
       style="display:inline">
      <g
         id="g3543"
         transform="matrix(1.5324027,0,0,1.5324027,-53.040505,-15.777158)">
        <path
           style="fill:#ffffff;fill-opacity:1;stroke:none;stroke-width:0.369412px;stroke-linecap:butt;stroke-linejoin:miter;stroke-opacity:1"
           d="m 84.850283,80.721848 c 11.079097,-26.503714 9.724185,-31.997191 3.614314,-46.84882 -2.565505,-6.048322 5.743573,-10.664356 9.950686,-3.747266 -0.220749,4.044545 -0.943419,4.168583 -2.219533,5.371599 -1.117622,-0.05534 -1.882561,3.285211 -0.388915,6.638656 7.505395,16.850661 5.368065,18.741154 3.077432,37.486706 z"
           id="path4943"
           sodipodi:nodetypes="ccccscc" />
        <path
           style="fill:#ffffff;fill-opacity:1;stroke:none;stroke-width:0.264583px;stroke-linecap:butt;stroke-linejoin:miter;stroke-opacity:1"
           d="m 91.115937,27.198244 c 0.639365,-0.667942 1.066345,-1.796051 1.422837,-3.076884 0.300128,0.520055 0.310181,2.528324 -0.08892,2.916815 z"
           id="path10022"
           sodipodi:nodetypes="cccc" />
        <path
           style="fill:#ffffff;fill-opacity:1;stroke:none;stroke-width:0.264583px;stroke-linecap:butt;stroke-linejoin:miter;stroke-opacity:1"
           d="m 92.520989,26.504611 c 0.456202,-0.415169 0.794707,-0.900955 1.013769,-1.458407 0.257262,0.879293 0.466838,2.498263 -0.03557,2.223182 l -1.33391,0.08893 z"
           id="path10560"
           sodipodi:nodetypes="ccccc" />
      </g>
    </g>
    <g
       inkscape:groupmode="layer"
       id="g2271"
       inkscape:label="Auge copy"
       style="display:inline">
      <ellipse
         style="display:inline;fill:#000000;fill-opacity:1;stroke:none;stroke-width:0.179325;stroke-linecap:round;stroke-opacity:1"
         id="ellipse2267"
         cx="93.098595"
         cy="31.4842"
         rx="0.94023973"
         ry="1.0969462" />
    </g>
    <g
       inkscape:groupmode="layer"
       id="layer11"
       inkscape:label="Schnabel 1"
       style="display:inline">
      <path
         style="fill:#ff9955;stroke:none;stroke-width:0.405448px;stroke-linecap:butt;stroke-linejoin:miter;stroke-opacity:1"
         d="M 97.771337,30.38764 108.14093,35.547326 97.220427,35.23898 105.9883,39.259037 93.970466,38.610036 C 87.97406,33.527324 97.220427,35.23898 97.771337,30.38764 Z"
         id="path1569"
         sodipodi:nodetypes="cccccc" />
    </g>
    <g
       inkscape:groupmode="layer"
       id="g14192"
       inkscape:label="Stirnband"
       style="display:inline">
      <path
         style="fill:#e8251f;fill-opacity:1;stroke:none;stroke-width:0.405448px;stroke-linecap:butt;stroke-linejoin:miter;stroke-opacity:1"
         d="m 94.042959,26.433685 c -4.143079,-0.204654 -8.644103,0.534737 -10.295979,1.193394 0,0 -1.091332,0.911468 -1.635685,2.781905 4.518672,-0.794781 9.576183,-1.920247 14.295189,-1.913707 -1.098104,-1.333601 -2.363525,-2.061592 -2.363525,-2.061592 z"
         id="path14186"
         sodipodi:nodetypes="csccc" />
      <path
         style="display:inline;fill:#e8251f;fill-opacity:1;stroke:none;stroke-width:0.405448px;stroke-linecap:butt;stroke-linejoin:miter;stroke-opacity:1"
         d="m 83.74698,27.627079 c -0.470424,0.23359 -1.603164,1.082989 -2.973466,4.055797 -1.515981,3.288852 -2.433765,8.298559 -2.269078,9.177129 -0.178096,1.056982 0.536591,1.766772 1.662525,2.316634 -0.440366,-4.461696 2.262263,-11.15009 3.580019,-15.54956 z"
         id="path14188"
         sodipodi:nodetypes="csccc" />
      <path
         style="display:inline;fill:#e8251f;fill-opacity:1;stroke:none;stroke-width:0.405448px;stroke-linecap:butt;stroke-linejoin:miter;stroke-opacity:1"
         d="m 82.534903,29.291291 c -0.663301,4.442766 -2.796102,10.056422 -2.327059,11.555094 l 1.689778,1.144688 c -0.690879,-2.506549 1.801468,-9.881754 1.96528,-14.097678"
         id="path14190"
         sodipodi:nodetypes="cccc" />
    </g>
  </g>
  <g
     inkscape:groupmode="layer"
     id="layer7"
     inkscape:label="title"
     style="display:inline"
     transform="translate(-75.691815,-12.915919)"
     sodipodi:insensitive="true">
    <path
       id="rect8349"
       style="fill:#ffffff;stroke-width:0.264583;stroke-linecap:round"
       d="m 70.857269,49.941574 c 23.428559,5.608452 46.574851,7.038755 69.861291,0 v 21.057985 c -22.69061,-6.561404 -46.032972,-5.953437 -69.861291,0 z"
       sodipodi:nodetypes="ccccc" />
    <g
       inkscape:groupmode="layer"
       id="layer10"
       inkscape:label="font annie"
       style="display:inline">
      <text
         xml:space="preserve"
         style="font-style:normal;font-weight:normal;font-size:10.5833px;line-height:1.25;font-family:sans-serif;letter-spacing:0px;word-spacing:0px;fill:#000000;fill-opacity:1;stroke:none;stroke-width:0.264583"
         x="84.788002"
         y="65.32843"
         id="text38723"><tspan
           sodipodi:role="line"
           id="tspan38721"
           style="font-style:normal;font-variant:normal;font-weight:normal;font-stretch:normal;font-size:21.1667px;font-family:'Annie Use Your Telescope';-inkscape-font-specification:'Annie Use Your Telescope, Normal';font-variant-ligatures:normal;font-variant-caps:normal;font-variant-numeric:normal;font-variant-east-asian:normal;stroke-width:0.264583"
           x="84.788002"
           y="65.32843">emuze</tspan></text>
    </g>
    <g
       inkscape:groupmode="layer"
       id="g3494"
       inkscape:label="font chiller"
       style="display:none">
      <text
         xml:space="preserve"
         style="font-style:normal;font-weight:normal;font-size:10.5833px;line-height:1.25;font-family:sans-serif;letter-spacing:0px;word-spacing:0px;fill:#000000;fill-opacity:1;stroke:none;stroke-width:0.264583"
         x="83.077637"
         y="65.32843"
         id="text3492"><tspan
           sodipodi:role="line"
           id="tspan3490"
           style="font-style:normal;font-variant:normal;font-weight:normal;font-stretch:normal;font-size:26.4583px;font-family:Chiller;-inkscape-font-specification:'Chiller, Normal';font-variant-ligatures:normal;font-variant-caps:normal;font-variant-numeric:normal;font-variant-east-asian:normal;stroke-width:0.264583"
           x="83.077637"
           y="65.32843">emuze</tspan></text>
    </g>
  </g>
</svg>
